<?xml version="1.0" encoding="UTF-8"?>
<svg xmlns="http://www.w3.org/2000/svg" viewBox="0 0 500 130" width="500" height="130">
  <rect width="500" height="130" fill="#2C1A0E" rx="10"/>
  <g transform="translate(46,54)">
    <ellipse cx="0" cy="-16" rx="6" ry="13" fill="#97A886" opacity="0.6" transform="rotate(-55,0,0)"/>
    <ellipse cx="0" cy="-16" rx="6" ry="13" fill="#6B7C5A" opacity="0.85" transform="rotate(-25,0,0)"/>
    <ellipse cx="0" cy="-16" rx="6" ry="13" fill="#6B7C5A" opacity="1.0"/>
    <ellipse cx="0" cy="-16" rx="6" ry="13" fill="#6B7C5A" opacity="0.85" transform="rotate(25,0,0)"/>
    <ellipse cx="0" cy="-16" rx="6" ry="13" fill="#97A886" opacity="0.6" transform="rotate(55,0,0)"/>
    <circle cx="0" cy="0" r="5" fill="#D4A85C"/>
    <circle cx="0" cy="0" r="2.5" fill="#F2C96A"/>
    <path d="M0 5 Q1 18 0 30" stroke="#6B7C5A" stroke-width="1.6" fill="none" stroke-linecap="round"/>
    <path d="M0 20 Q-12 15 -13 7" stroke="#97A886" stroke-width="1.3" fill="none" stroke-linecap="round"/>
    <path d="M0 20 Q12 15 13 7" stroke="#97A886" stroke-width="1.3" fill="none" stroke-linecap="round"/>
  </g>
  <line x1="88" y1="26" x2="88" y2="104" stroke="#5C3D26" stroke-width="1.5"/>
  <text x="100" y="70" font-family="Georgia, serif" font-size="48" font-weight="700" fill="#FBF6EE" text-anchor="start" direction="rtl">&#x05D9;&#x05E4;&#x05D9;&#x05EA;</text>
  <line x1="100" y1="80" x2="380" y2="80" stroke="#5C3D26" stroke-width="0.8"/>
  <text x="100" y="97" font-family="Arial, sans-serif" font-size="12" fill="#D4A85C" text-anchor="start" direction="rtl" letter-spacing="0.8">&#x05DE;&#x05D8;&#x05E4;&#x05DC;&#x05EA; &#x05D4;&#x05D5;&#x05DC;&#x05D9;&#x05E1;&#x05D8;&#x05D9;&#x05EA; &#x05D2;&#x05D5;&#x05E3;-&#x05E0;&#x05E4;&#x05E9;</text>
  <circle cx="100" cy="111" r="2.2" fill="#D4A85C"/>
  <circle cx="110" cy="111" r="2.2" fill="#D4A85C"/>
  <circle cx="120" cy="111" r="2.2" fill="#D4A85C"/>
</svg>
